<svg height="465.232pt" viewBox="0 0 465.232 465.232" width="465.232pt" xmlns="http://www.w3.org/2000/svg"><path d="m465.230469 232c.335937 126.847656-101.015625 230.578125-227.835938 233.183594-126.820312 2.605468-232.347656-96.875-237.222656-223.628906-4.875-126.75 92.699219-234.042969 219.34375-241.1875 126.648437-7.140626 235.667969 88.496093 245.074219 214.996093.480468 5.519531.640625 11.039063.640625 16.636719zm0 0" fill="#c6c5ca"/><path d="m465.230469 232c-.035157 73.085938-34.492188 141.890625-92.996094 185.691406-58.503906 43.804688-134.222656 57.496094-204.363281 36.949219l-86.640625-86.640625 160-122.078125v-165.921875l56 56h88l79.359375 79.363281c.480468 5.519531.640625 11.039063.640625 16.636719zm0 0" fill="#adacb1"/><path d="m241.230469 216v112h144v-192zm0 0" fill="#3d9ae2"/><path d="m241.230469 80v304l-160-16v-272zm0 0" fill="#57a4ff"/><path d="m209.230469 232c0-39.761719-21.488281-72-48-72-26.507813 0-48 32.238281-48 72 0 39.765625 21.492187 72 48 72 26.511719 0 48-32.234375 48-72zm0 0" fill="#fff"/><path d="m241.230469 218.480469 24 13.519531 120-66.636719v-29.363281h-144zm0 0" fill="#006df0"/></svg>